<svg xmlns="http://www.w3.org/2000/svg" width="850" height="280" viewBox="0 0 850 280">
  <defs>
    <style>
      .star-bg { animation: twinkle-slow 7s ease-in-out infinite; }
      .star-mid { animation: twinkle-mid 5s ease-in-out infinite; }
      .star-fg  { animation: twinkle-fast 3s ease-in-out infinite; }
      @keyframes twinkle-slow { 0%,100%{opacity:0.08} 50%{opacity:0.3} }
      @keyframes twinkle-mid  { 0%,100%{opacity:0.15} 50%{opacity:0.5} }
      @keyframes twinkle-fast { 0%,100%{opacity:0.4}  50%{opacity:0.8} }
      .core-ring       { animation: pulse-core 3s ease-in-out infinite; }
      .core-ring-inner { animation: pulse-core 3s ease-in-out infinite 1.5s; }
      @keyframes pulse-core {
        0%,100%{ stroke-opacity:0.3; transform:scale(1);    transform-origin:425px 155px; }
        50%    { stroke-opacity:0.8; transform:scale(1.06); transform-origin:425px 155px; }
      }
      .shooting-star { opacity:0; animation:shoot linear infinite; }
      @keyframes shoot {
        0%  { opacity:0; transform:translate(0,0); }
        5%  { opacity:0.9; }
        15% { opacity:0.6; transform:translate(var(--shoot-tx),var(--shoot-ty)); }
        20% { opacity:0;   transform:translate(var(--shoot-tx),var(--shoot-ty)); }
        100%{ opacity:0; }
      }
    </style>
    <filter id="nebula-outer"><feGaussianBlur stdDeviation="60"/></filter>
    <filter id="nebula-inner"><feGaussianBlur stdDeviation="30"/></filter>
    <filter id="label-glow" x="-20%" y="-20%" width="140%" height="140%"><feGaussianBlur stdDeviation="2" result="blur"/></filter>
    <filter id="core-bright-glow" x="-100%" y="-100%" width="300%" height="300%"><feGaussianBlur stdDeviation="4"/></filter>
    <radialGradient id="core-haze-gradient" cx="50%" cy="50%" r="50%">
      <stop offset="0%"   stop-color="#00d4ff" stop-opacity="0.5"/>
      <stop offset="50%"  stop-color="#a78bfa" stop-opacity="0.2"/>
      <stop offset="100%" stop-color="#00d4ff" stop-opacity="0"/>
    </radialGradient>
    <radialGradient id="core-inner-gradient" cx="50%" cy="50%" r="50%">
      <stop offset="0%"   stop-color="#ffffff" stop-opacity="0.6"/>
      <stop offset="40%"  stop-color="#00d4ff" stop-opacity="0.3"/>
      <stop offset="100%" stop-color="#00d4ff" stop-opacity="0"/>
    </radialGradient>
    <linearGradient id="shoot-grad" x1="0%" y1="0%" x2="100%" y2="0%">
      <stop offset="0%"   stop-color="#ffffff" stop-opacity="0.8"/>
      <stop offset="100%" stop-color="#ffffff" stop-opacity="0"/>
    </linearGradient>
    <filter id="star-glow-0" x="-100%" y="-100%" width="300%" height="300%">
      <feGaussianBlur stdDeviation="3" result="blur"/>
      <feFlood flood-color="#00d4ff" flood-opacity="0.5" result="color"/>
      <feComposite in="color" in2="blur" operator="in" result="glow"/>
      <feMerge><feMergeNode in="glow"/><feMergeNode in="SourceGraphic"/></feMerge>
    </filter>
    <filter id="star-glow-1" x="-100%" y="-100%" width="300%" height="300%">
      <feGaussianBlur stdDeviation="3" result="blur"/>
      <feFlood flood-color="#a78bfa" flood-opacity="0.5" result="color"/>
      <feComposite in="color" in2="blur" operator="in" result="glow"/>
      <feMerge><feMergeNode in="glow"/><feMergeNode in="SourceGraphic"/></feMerge>
    </filter>
    <filter id="star-glow-2" x="-100%" y="-100%" width="300%" height="300%">
      <feGaussianBlur stdDeviation="3" result="blur"/>
      <feFlood flood-color="#ffb020" flood-opacity="0.5" result="color"/>
      <feComposite in="color" in2="blur" operator="in" result="glow"/>
      <feMerge><feMergeNode in="glow"/><feMergeNode in="SourceGraphic"/></feMerge>
    </filter>
  </defs>

  <rect x="0" y="0" width="850" height="280" rx="12" ry="12" fill="#020c20"/>

  <circle cx="245" cy="125" r="120" fill="#a78bfa" opacity="0.015" filter="url(#nebula-outer)"/>
  <circle cx="625" cy="175" r="100" fill="#ffb020"  opacity="0.012" filter="url(#nebula-outer)"/>
  <circle cx="425" cy="195" r="140" fill="#00d4ff"  opacity="0.01"  filter="url(#nebula-outer)"/>

  <circle cx="455.3" cy="157.9" r="0.46" fill="#00d4ff" opacity="0.28" class="star-bg" style="animation-delay:1.6s"/>
  <circle cx="293.2" cy="87.1"  r="0.51" fill="#ffffff" opacity="0.12" class="star-bg" style="animation-delay:1.6s"/>
  <circle cx="321.7" cy="141.8" r="0.33" fill="#ffffff" opacity="0.13" class="star-bg" style="animation-delay:2.0s"/>
  <circle cx="598.4" cy="77.8"  r="0.59" fill="#ffffff" opacity="0.09" class="star-bg" style="animation-delay:2.2s"/>
  <circle cx="465.4" cy="227.5" r="0.51" fill="#a78bfa" opacity="0.11" class="star-bg" style="animation-delay:2.7s"/>
  <circle cx="98.2"  cy="238.0" r="0.52" fill="#ffffff" opacity="0.11" class="star-bg" style="animation-delay:2.4s"/>
  <circle cx="272.3" cy="195.4" r="0.76" fill="#ffffff" opacity="0.16" class="star-bg" style="animation-delay:2.5s"/>
  <circle cx="363.3" cy="203.0" r="0.54" fill="#ffffff" opacity="0.25" class="star-bg" style="animation-delay:2.5s"/>
  <circle cx="236.9" cy="137.7" r="0.75" fill="#ffb020"  opacity="0.28" class="star-bg" style="animation-delay:1.9s"/>
  <circle cx="736.2" cy="118.1" r="0.73" fill="#ffffff" opacity="0.18" class="star-bg" style="animation-delay:2.4s"/>
  <circle cx="464.5" cy="133.9" r="0.62" fill="#ffffff" opacity="0.26" class="star-bg" style="animation-delay:1.8s"/>
  <circle cx="105.9" cy="155.9" r="0.31" fill="#ffffff" opacity="0.15" class="star-bg" style="animation-delay:1.6s"/>
  <circle cx="712.3" cy="157.2" r="0.50" fill="#00d4ff" opacity="0.18" class="star-bg" style="animation-delay:2.3s"/>
  <circle cx="616.8" cy="95.5"  r="0.55" fill="#ffffff" opacity="0.11" class="star-bg" style="animation-delay:2.2s"/>
  <circle cx="258.3" cy="107.8" r="0.60" fill="#ffffff" opacity="0.14" class="star-bg" style="animation-delay:2.7s"/>
  <circle cx="542.9" cy="82.7"  r="0.76" fill="#ffffff" opacity="0.11" class="star-bg" style="animation-delay:2.5s"/>
  <circle cx="256.6" cy="33.5"  r="0.38" fill="#a78bfa" opacity="0.10" class="star-bg" style="animation-delay:2.2s"/>
  <circle cx="613.5" cy="17.7"  r="0.72" fill="#ffffff" opacity="0.29" class="star-bg" style="animation-delay:2.3s"/>
  <circle cx="400.8" cy="200.4" r="0.33" fill="#ffffff" opacity="0.17" class="star-bg" style="animation-delay:2.1s"/>
  <circle cx="63.3"  cy="197.7" r="0.35" fill="#ffffff" opacity="0.09" class="star-bg" style="animation-delay:2.1s"/>
  <circle cx="220.1" cy="21.1"  r="0.53" fill="#ffffff" opacity="0.28" class="star-bg" style="animation-delay:1.8s"/>
  <circle cx="540.1" cy="44.2"  r="0.63" fill="#ffffff" opacity="0.12" class="star-bg" style="animation-delay:1.7s"/>
  <circle cx="831.6" cy="139.3" r="0.63" fill="#ffffff" opacity="0.30" class="star-bg" style="animation-delay:1.6s"/>
  <circle cx="667.8" cy="29.5"  r="0.43" fill="#ffffff" opacity="0.18" class="star-bg" style="animation-delay:2.5s"/>
  <circle cx="587.7" cy="215.9" r="0.72" fill="#ffffff" opacity="0.30" class="star-bg" style="animation-delay:2.6s"/>
  <circle cx="467.0" cy="43.0"  r="0.60" fill="#00d4ff" opacity="0.23" class="star-mid" style="animation-delay:1.5s"/>
  <circle cx="837.6" cy="180.0" r="0.95" fill="#ffffff" opacity="0.47" class="star-mid" style="animation-delay:1.1s"/>
  <circle cx="725.0" cy="120.3" r="0.77" fill="#ffffff" opacity="0.44" class="star-mid" style="animation-delay:1.3s"/>
  <circle cx="658.7" cy="65.2"  r="0.71" fill="#ffffff" opacity="0.17" class="star-mid" style="animation-delay:1.3s"/>
  <circle cx="757.6" cy="266.0" r="1.03" fill="#a78bfa" opacity="0.43" class="star-mid" style="animation-delay:1.1s"/>
  <circle cx="372.9" cy="19.9"  r="0.77" fill="#ffffff" opacity="0.34" class="star-mid" style="animation-delay:1.3s"/>
  <circle cx="272.0" cy="85.0"  r="1.08" fill="#ffffff" opacity="0.42" class="star-mid" style="animation-delay:1.5s"/>
  <circle cx="362.8" cy="76.1"  r="1.01" fill="#ffffff" opacity="0.29" class="star-mid" style="animation-delay:1.8s"/>
  <circle cx="446.0" cy="223.1" r="0.88" fill="#ffffff" opacity="0.35" class="star-mid" style="animation-delay:1.3s"/>
  <circle cx="774.7" cy="171.7" r="0.78" fill="#ffffff" opacity="0.43" class="star-mid" style="animation-delay:1.3s"/>
  <circle cx="491.5" cy="167.6" r="0.74" fill="#00d4ff" opacity="0.35" class="star-mid" style="animation-delay:2.1s"/>
  <circle cx="140.7" cy="84.3"  r="1.16" fill="#a78bfa" opacity="0.48" class="star-mid" style="animation-delay:1.2s"/>
  <circle cx="85.6"  cy="146.8" r="0.68" fill="#ffffff" opacity="0.47" class="star-mid" style="animation-delay:1.8s"/>
  <circle cx="238.9" cy="97.5"  r="1.58" fill="#00d4ff" opacity="0.66" class="star-fg"  style="animation-delay:0.7s"/>
  <circle cx="633.1" cy="105.9" r="1.51" fill="#ffffff" opacity="0.58" class="star-fg"  style="animation-delay:0.8s"/>
  <circle cx="250.7" cy="221.6" r="1.05" fill="#ffffff" opacity="0.41" class="star-fg"  style="animation-delay:0.9s"/>
  <circle cx="772.5" cy="184.1" r="1.07" fill="#ffffff" opacity="0.53" class="star-fg"  style="animation-delay:1.3s"/>
  <circle cx="467.3" cy="219.7" r="1.63" fill="#a78bfa" opacity="0.48" class="star-fg"  style="animation-delay:1.2s"/>
  <circle cx="138.5" cy="120.0" r="1.43" fill="#ffffff" opacity="0.42" class="star-fg"  style="animation-delay:0.9s"/>
  <circle cx="110.8" cy="228.1" r="1.40" fill="#ffffff" opacity="0.60" class="star-fg"  style="animation-delay:1.1s"/>
  <circle cx="585.3" cy="124.9" r="1.80" fill="#ffb020"  opacity="0.57" class="star-fg"  style="animation-delay:1.0s"/>
  <circle cx="722.8" cy="236.1" r="1.55" fill="#ffffff" opacity="0.61" class="star-fg"  style="animation-delay:0.6s"/>

  <circle cx="425" cy="155" r="70" fill="#00d4ff" opacity="0.04"  filter="url(#nebula-inner)"/>
  <circle cx="365" cy="135" r="50" fill="#a78bfa" opacity="0.035" filter="url(#nebula-inner)"/>
  <circle cx="495" cy="170" r="45" fill="#ffb020"  opacity="0.03"  filter="url(#nebula-inner)"/>

  <!-- Shooting stars -->
  <line x1="120" y1="30" x2="140" y2="35" stroke="url(#shoot-grad)" stroke-width="1.2" stroke-linecap="round" class="shooting-star" style="animation-delay:0.0s;--shoot-tx:200px;--shoot-ty:80px;animation-duration:7s"/>
  <line x1="650" y1="20" x2="670" y2="25" stroke="url(#shoot-grad)" stroke-width="1.2" stroke-linecap="round" class="shooting-star" style="animation-delay:4.5s;--shoot-tx:180px;--shoot-ty:70px;animation-duration:9s"/>

  <!-- Spiral arms — CYAN Backend -->
  <path d="M 425.0 155.0 Q 429.6 155.8 434.3 156.7 Q 437.5 157.9 440.8 159.2 Q 442.3 160.7 443.8 162.2 Q 443.2 163.9 442.6 165.6 Q 439.8 167.4 437.1 169.1 Q 432.0 170.7 427.0 172.3 Q 419.9 173.6 412.7 174.9" fill="none" stroke="#00d4ff" stroke-width="2.0" opacity="0.50" stroke-linecap="round">
    <animate attributeName="opacity" values="0.40;0.60;0.40" dur="8s" begin="0s" repeatCount="indefinite"/>
  </path>
  <path d="M 412.7 174.9 Q 403.7 175.8 394.7 176.8 Q 384.3 177.1 373.8 177.5 Q 362.5 177.2 351.1 176.9 Q 339.3 175.9 327.6 174.9 Q 316.2 173.2 304.9 171.4 Q 294.5 169.0 284.2 166.5 Q 275.6 163.3 267.0 160.1" fill="none" stroke="#00d4ff" stroke-width="1.7" opacity="0.40" stroke-linecap="round">
    <animate attributeName="opacity" values="0.30;0.50;0.30" dur="8s" begin="0s" repeatCount="indefinite"/>
  </path>
  <path d="M 267.0 160.1 Q 260.8 156.3 254.6 152.5 Q 251.4 148.3 248.2 144.0 Q 248.5 139.4 248.8 134.8 Q 252.9 130.0 257.1 125.3 Q 265.2 120.6 273.4 115.9 Q 285.6 111.6 297.8 107.2 Q 313.9 103.3 330.0 99.4" fill="none" stroke="#00d4ff" stroke-width="1.4" opacity="0.30" stroke-linecap="round">
    <animate attributeName="opacity" values="0.20;0.40;0.20" dur="8s" begin="0s" repeatCount="indefinite"/>
  </path>
  <path d="M 330.0 99.4 Q 349.7 96.3 369.3 93.2 Q 391.9 91.0 414.4 88.8 Q 439.3 87.6 464.1 86.5 Q 490.4 86.7 516.6 86.8 Q 543.3 88.2 570.0 89.7 Q 596.0 92.5 622.1 95.3 Q 646.4 99.4 670.7 103.6" fill="none" stroke="#00d4ff" stroke-width="1.1" opacity="0.20" stroke-linecap="round">
    <animate attributeName="opacity" values="0.10;0.30;0.10" dur="8s" begin="0s" repeatCount="indefinite"/>
  </path>

  <!-- Spiral arms — PURPLE Frontend -->
  <path d="M 425.0 155.0 Q 419.6 155.5 414.3 156.0 Q 408.4 155.9 402.5 155.9 Q 396.7 155.3 390.9 154.8 Q 385.7 153.7 380.5 152.6 Q 376.5 151.0 372.5 149.4 Q 370.2 147.5 367.9 145.5 Q 367.8 143.3 367.6 141.0" fill="none" stroke="#a78bfa" stroke-width="2.0" opacity="0.50" stroke-linecap="round">
    <animate attributeName="opacity" values="0.40;0.60;0.40" dur="8s" begin="1s" repeatCount="indefinite"/>
  </path>
  <path d="M 367.6 141.0 Q 369.8 138.6 372.0 136.2 Q 376.8 133.9 381.7 131.5 Q 389.1 129.3 396.5 127.1 Q 406.5 125.2 416.4 123.4 Q 428.6 122.0 440.7 120.6 Q 454.7 119.9 468.7 119.2 Q 483.9 119.2 499.1 119.3" fill="none" stroke="#a78bfa" stroke-width="1.7" opacity="0.40" stroke-linecap="round">
    <animate attributeName="opacity" values="0.30;0.50;0.30" dur="8s" begin="1s" repeatCount="indefinite"/>
  </path>
  <path d="M 499.1 119.3 Q 514.9 120.2 530.7 121.1 Q 546.4 122.8 562.0 124.6 Q 576.8 127.3 591.5 130.0 Q 604.4 133.6 617.4 137.2 Q 627.8 141.6 638.2 145.9 Q 645.4 151.0 652.5 156.0 Q 655.8 161.6 659.1 167.2" fill="none" stroke="#a78bfa" stroke-width="1.4" opacity="0.30" stroke-linecap="round">
    <animate attributeName="opacity" values="0.20;0.40;0.20" dur="8s" begin="1s" repeatCount="indefinite"/>
  </path>
  <path d="M 659.1 167.2 Q 658.0 173.0 656.9 178.9 Q 651.1 184.9 645.3 190.8 Q 634.6 196.6 623.9 202.4 Q 608.5 207.8 593.0 213.2 Q 573.1 217.9 553.1 222.6 Q 529.1 226.4 505.1 230.1 Q 477.7 232.8 450.3 235.5" fill="none" stroke="#a78bfa" stroke-width="1.1" opacity="0.20" stroke-linecap="round">
    <animate attributeName="opacity" values="0.10;0.30;0.10" dur="8s" begin="1s" repeatCount="indefinite"/>
  </path>

  <!-- Spiral arms — AMBER Cloud & Arch -->
  <path d="M 425.0 155.0 Q 425.6 153.6 426.1 152.1 Q 428.7 150.8 431.3 149.5 Q 435.8 148.4 440.3 147.3 Q 446.4 146.5 452.5 145.8 Q 459.8 145.6 467.1 145.3 Q 475.1 145.6 483.1 145.9 Q 491.2 146.8 499.3 147.7" fill="none" stroke="#ffb020" stroke-width="2.0" opacity="0.50" stroke-linecap="round">
    <animate attributeName="opacity" values="0.40;0.60;0.40" dur="8s" begin="2s" repeatCount="indefinite"/>
  </path>
  <path d="M 499.3 147.7 Q 506.9 149.2 514.5 150.8 Q 520.9 152.9 527.4 155.0 Q 532.1 157.6 536.9 160.3 Q 539.3 163.3 541.8 166.4 Q 541.5 169.8 541.3 173.1 Q 538.0 176.6 534.6 180.2 Q 528.1 183.6 521.5 187.1" fill="none" stroke="#ffb020" stroke-width="1.7" opacity="0.40" stroke-linecap="round">
    <animate attributeName="opacity" values="0.30;0.50;0.30" dur="8s" begin="2s" repeatCount="indefinite"/>
  </path>
  <path d="M 521.5 187.1 Q 511.6 190.4 501.8 193.6 Q 488.7 196.5 475.7 199.3 Q 459.8 201.5 443.9 203.8 Q 425.7 205.2 407.4 206.7 Q 387.3 207.2 367.3 207.8 Q 346.2 207.3 325.1 206.8 Q 303.8 205.2 282.6 203.6" fill="none" stroke="#ffb020" stroke-width="1.4" opacity="0.30" stroke-linecap="round">
    <animate attributeName="opacity" values="0.20;0.40;0.20" dur="8s" begin="2s" repeatCount="indefinite"/>
  </path>
  <path d="M 282.6 203.6 Q 262.0 200.9 241.5 198.1 Q 222.6 194.3 203.8 190.4 Q 187.6 185.5 171.4 180.6 Q 158.6 174.8 145.9 169.0 Q 137.5 162.4 129.2 155.9 Q 125.7 148.7 122.3 141.6 Q 124.4 134.2 126.5 126.8" fill="none" stroke="#ffb020" stroke-width="1.1" opacity="0.20" stroke-linecap="round">
    <animate attributeName="opacity" values="0.10;0.30;0.10" dur="8s" begin="2s" repeatCount="indefinite"/>
  </path>

  <!-- Arm particles -->
  <circle r="1.5" fill="#00d4ff" opacity="0.6">
    <animateMotion dur="12s" begin="0s" repeatCount="indefinite" path="M 425.0 155.0 Q 429.6 155.8 434.3 156.7 Q 437.5 157.9 440.8 159.2 Q 443.8 162.2 443.2 163.9 Q 439.8 167.4 432.0 170.7 Q 419.9 173.6 412.7 174.9 Q 403.7 175.8 384.3 177.1 Q 362.5 177.2 339.3 175.9 Q 316.2 173.2 294.5 169.0 Q 275.6 163.3 260.8 156.3 Q 251.4 148.3 248.5 139.4 Q 252.9 130.0 265.2 120.6 Q 285.6 111.6 313.9 103.3 Q 349.7 96.3 391.9 91.0 Q 439.3 87.6 490.4 86.7 Q 543.3 88.2 596.0 92.5 Q 646.4 99.4 670.7 103.6 L 713.6 114.5"/>
    <animate attributeName="opacity" values="0;0.7;0.3;0" dur="12s" begin="0s" repeatCount="indefinite"/>
  </circle>
  <circle r="1.5" fill="#00d4ff" opacity="0.6">
    <animateMotion dur="12s" begin="6s" repeatCount="indefinite" path="M 425.0 155.0 Q 429.6 155.8 434.3 156.7 Q 437.5 157.9 440.8 159.2 Q 443.8 162.2 443.2 163.9 Q 439.8 167.4 432.0 170.7 Q 419.9 173.6 412.7 174.9 Q 403.7 175.8 384.3 177.1 Q 362.5 177.2 339.3 175.9 Q 316.2 173.2 294.5 169.0 Q 275.6 163.3 260.8 156.3 Q 251.4 148.3 248.5 139.4 Q 252.9 130.0 265.2 120.6 Q 285.6 111.6 313.9 103.3 Q 349.7 96.3 391.9 91.0 Q 439.3 87.6 490.4 86.7 Q 543.3 88.2 596.0 92.5 Q 646.4 99.4 670.7 103.6 L 713.6 114.5"/>
    <animate attributeName="opacity" values="0;0.7;0.3;0" dur="12s" begin="6s" repeatCount="indefinite"/>
  </circle>
  <circle r="1.5" fill="#a78bfa" opacity="0.6">
    <animateMotion dur="12s" begin="4s" repeatCount="indefinite" path="M 425.0 155.0 Q 419.6 155.5 414.3 156.0 Q 408.4 155.9 396.7 155.3 Q 385.7 153.7 376.5 151.0 Q 370.2 147.5 367.8 143.3 Q 367.6 141.0 369.8 138.6 Q 376.8 133.9 389.1 129.3 Q 406.5 125.2 428.6 122.0 Q 454.7 119.9 483.9 119.2 Q 514.9 120.2 546.4 122.8 Q 576.8 127.3 604.4 133.6 Q 627.8 141.6 645.4 151.0 Q 655.8 161.6 659.1 167.2 Q 658.0 173.0 651.1 184.9 Q 634.6 196.6 608.5 207.8 Q 573.1 217.9 529.1 226.4 Q 477.7 232.8 450.3 235.5 L 390.5 238.1"/>
    <animate attributeName="opacity" values="0;0.7;0.3;0" dur="12s" begin="4s" repeatCount="indefinite"/>
  </circle>
  <circle r="1.5" fill="#a78bfa" opacity="0.6">
    <animateMotion dur="12s" begin="10s" repeatCount="indefinite" path="M 425.0 155.0 Q 419.6 155.5 414.3 156.0 Q 408.4 155.9 396.7 155.3 Q 385.7 153.7 376.5 151.0 Q 370.2 147.5 367.8 143.3 Q 367.6 141.0 369.8 138.6 Q 376.8 133.9 389.1 129.3 Q 406.5 125.2 428.6 122.0 Q 454.7 119.9 483.9 119.2 Q 514.9 120.2 546.4 122.8 Q 576.8 127.3 604.4 133.6 Q 627.8 141.6 645.4 151.0 Q 655.8 161.6 659.1 167.2 Q 658.0 173.0 651.1 184.9 Q 634.6 196.6 608.5 207.8 Q 573.1 217.9 529.1 226.4 Q 477.7 232.8 450.3 235.5 L 390.5 238.1"/>
    <animate attributeName="opacity" values="0;0.7;0.3;0" dur="12s" begin="10s" repeatCount="indefinite"/>
  </circle>
  <circle r="1.5" fill="#ffb020" opacity="0.6">
    <animateMotion dur="12s" begin="8s" repeatCount="indefinite" path="M 425.0 155.0 Q 425.6 153.6 428.7 150.8 Q 435.8 148.4 446.4 146.5 Q 459.8 145.6 475.1 145.6 Q 491.2 146.8 506.9 149.2 Q 520.9 152.9 532.1 157.6 Q 539.3 163.3 541.5 169.8 Q 538.0 176.6 528.1 183.6 Q 511.6 190.4 488.7 196.5 Q 459.8 201.5 425.7 205.2 Q 387.3 207.2 346.2 207.3 Q 303.8 205.2 262.0 200.9 Q 222.6 194.3 187.6 185.5 Q 158.6 174.8 137.5 162.4 Q 122.3 141.6 126.5 126.8 L 134.3 119.4"/>
    <animate attributeName="opacity" values="0;0.7;0.3;0" dur="12s" begin="8s" repeatCount="indefinite"/>
  </circle>
  <circle r="1.5" fill="#ffb020" opacity="0.6">
    <animateMotion dur="12s" begin="14s" repeatCount="indefinite" path="M 425.0 155.0 Q 425.6 153.6 428.7 150.8 Q 435.8 148.4 446.4 146.5 Q 459.8 145.6 475.1 145.6 Q 491.2 146.8 506.9 149.2 Q 520.9 152.9 532.1 157.6 Q 539.3 163.3 541.5 169.8 Q 538.0 176.6 528.1 183.6 Q 511.6 190.4 488.7 196.5 Q 459.8 201.5 425.7 205.2 Q 387.3 207.2 346.2 207.3 Q 303.8 205.2 262.0 200.9 Q 222.6 194.3 187.6 185.5 Q 158.6 174.8 137.5 162.4 Q 122.3 141.6 126.5 126.8 L 134.3 119.4"/>
    <animate attributeName="opacity" values="0;0.7;0.3;0" dur="12s" begin="14s" repeatCount="indefinite"/>
  </circle>

  <!-- CYAN — Backend: Java > Spring Boot > Hibernate > JUnit -->
  <circle cx="394.7" cy="176.8" r="2.5" fill="#00d4ff" opacity="0.85">
    <animate attributeName="opacity" values="0.85;1;0.85" dur="5s" begin="0.0s" repeatCount="indefinite"/>
  </circle>
  <line x1="394.7" y1="176.8" x2="380.1" y2="187.3" stroke="#00d4ff" stroke-width="0.5" opacity="0.25" stroke-dasharray="2 2"/>
  <text x="380.1" y="190.3" text-anchor="end" fill="#00d4ff" font-size="9" font-family="monospace" opacity="0.2" filter="url(#label-glow)">Java</text>
  <text x="380.1" y="190.3" text-anchor="end" fill="#00d4ff" font-size="9" font-family="monospace" opacity="0.85">Java</text>

  <circle cx="284.2" cy="166.5" r="2.5" fill="#00d4ff" opacity="0.85">
    <animate attributeName="opacity" values="0.85;1;0.85" dur="5s" begin="0.7s" repeatCount="indefinite"/>
  </circle>
  <line x1="284.2" y1="166.5" x2="266.2" y2="167.9" stroke="#00d4ff" stroke-width="0.5" opacity="0.25" stroke-dasharray="2 2"/>
  <text x="266.2" y="170.9" text-anchor="end" fill="#00d4ff" font-size="9" font-family="monospace" opacity="0.2" filter="url(#label-glow)">Spring Boot</text>
  <text x="266.2" y="170.9" text-anchor="end" fill="#00d4ff" font-size="9" font-family="monospace" opacity="0.85">Spring Boot</text>

  <circle cx="257.1" cy="125.3" r="2.5" fill="#00d4ff" opacity="0.85">
    <animate attributeName="opacity" values="0.85;1;0.85" dur="5s" begin="1.4s" repeatCount="indefinite"/>
  </circle>
  <line x1="257.1" y1="125.3" x2="239.3" y2="122.2" stroke="#00d4ff" stroke-width="0.5" opacity="0.25" stroke-dasharray="2 2"/>
  <text x="239.3" y="125.2" text-anchor="end" fill="#00d4ff" font-size="9" font-family="monospace" opacity="0.2" filter="url(#label-glow)">Hibernate</text>
  <text x="239.3" y="125.2" text-anchor="end" fill="#00d4ff" font-size="9" font-family="monospace" opacity="0.85">Hibernate</text>

  <circle cx="414.4" cy="88.8" r="2.5" fill="#00d4ff" opacity="0.85">
    <animate attributeName="opacity" values="0.85;1;0.85" dur="5s" begin="2.1s" repeatCount="indefinite"/>
  </circle>
  <line x1="414.4" y1="88.8" x2="411.6" y2="71.0" stroke="#00d4ff" stroke-width="0.5" opacity="0.25" stroke-dasharray="2 2"/>
  <text x="411.6" y="68.0" text-anchor="middle" fill="#00d4ff" font-size="9" font-family="monospace" opacity="0.2" filter="url(#label-glow)">JUnit</text>
  <text x="411.6" y="68.0" text-anchor="middle" fill="#00d4ff" font-size="9" font-family="monospace" opacity="0.85">JUnit</text>

  <!-- PURPLE — Frontend: TypeScript > React > REST APIs -->
  <circle cx="372.0" cy="136.2" r="2.5" fill="#a78bfa" opacity="0.85">
    <animate attributeName="opacity" values="0.85;1;0.85" dur="5s" begin="0.0s" repeatCount="indefinite"/>
  </circle>
  <line x1="372.0" y1="136.2" x2="355.1" y2="130.2" stroke="#a78bfa" stroke-width="0.5" opacity="0.25" stroke-dasharray="2 2"/>
  <text x="355.1" y="133.2" text-anchor="end" fill="#a78bfa" font-size="9" font-family="monospace" opacity="0.2" filter="url(#label-glow)">TypeScript</text>
  <text x="355.1" y="133.2" text-anchor="end" fill="#a78bfa" font-size="9" font-family="monospace" opacity="0.85">TypeScript</text>

  <circle cx="468.7" cy="119.2" r="2.5" fill="#a78bfa" opacity="0.85">
    <animate attributeName="opacity" values="0.85;1;0.85" dur="5s" begin="0.7s" repeatCount="indefinite"/>
  </circle>
  <line x1="468.7" y1="119.2" x2="482.6" y2="107.8" stroke="#a78bfa" stroke-width="0.5" opacity="0.25" stroke-dasharray="2 2"/>
  <text x="482.6" y="105.8" text-anchor="start" fill="#a78bfa" font-size="9" font-family="monospace" opacity="0.2" filter="url(#label-glow)">React</text>
  <text x="482.6" y="105.8" text-anchor="start" fill="#a78bfa" font-size="9" font-family="monospace" opacity="0.85">React</text>

  <circle cx="645.3" cy="190.8" r="2.5" fill="#a78bfa" opacity="0.85">
    <animate attributeName="opacity" values="0.85;1;0.85" dur="5s" begin="2.1s" repeatCount="indefinite"/>
  </circle>
  <line x1="645.3" y1="190.8" x2="663.0" y2="193.7" stroke="#a78bfa" stroke-width="0.5" opacity="0.25" stroke-dasharray="2 2"/>
  <text x="663.0" y="196.7" text-anchor="start" fill="#a78bfa" font-size="9" font-family="monospace" opacity="0.2" filter="url(#label-glow)">REST APIs</text>
  <text x="663.0" y="196.7" text-anchor="start" fill="#a78bfa" font-size="9" font-family="monospace" opacity="0.85">REST APIs</text>

  <!-- AMBER — Cloud & Arch: Docker > AWS > Clean Architecture > Kafka -->
  <circle cx="514.5" cy="150.8" r="2.5" fill="#ffb020" opacity="0.85">
    <animate attributeName="opacity" values="0.85;1;0.85" dur="5s" begin="0.0s" repeatCount="indefinite"/>
  </circle>
  <line x1="514.5" y1="150.8" x2="532.5" y2="149.9" stroke="#ffb020" stroke-width="0.5" opacity="0.25" stroke-dasharray="2 2"/>
  <text x="532.5" y="152.9" text-anchor="start" fill="#ffb020" font-size="9" font-family="monospace" opacity="0.2" filter="url(#label-glow)">Docker</text>
  <text x="532.5" y="152.9" text-anchor="start" fill="#ffb020" font-size="9" font-family="monospace" opacity="0.85">Docker</text>

  <circle cx="534.6" cy="180.2" r="2.5" fill="#ffb020" opacity="0.85">
    <animate attributeName="opacity" values="0.85;1;0.85" dur="5s" begin="0.7s" repeatCount="indefinite"/>
  </circle>
  <line x1="534.6" y1="180.2" x2="552.2" y2="184.2" stroke="#ffb020" stroke-width="0.5" opacity="0.25" stroke-dasharray="2 2"/>
  <text x="552.2" y="187.2" text-anchor="start" fill="#ffb020" font-size="9" font-family="monospace" opacity="0.2" filter="url(#label-glow)">AWS</text>
  <text x="552.2" y="187.2" text-anchor="start" fill="#ffb020" font-size="9" font-family="monospace" opacity="0.85">AWS</text>

  <circle cx="407.4" cy="206.7" r="2.5" fill="#ffb020" opacity="0.85">
    <animate attributeName="opacity" values="0.85;1;0.85" dur="5s" begin="1.4s" repeatCount="indefinite"/>
  </circle>
  <line x1="407.4" y1="206.7" x2="401.6" y2="221.7" stroke="#ffb020" stroke-width="0.5" opacity="0.25" stroke-dasharray="2 2"/>
  <text x="401.6" y="224.7" text-anchor="middle" fill="#ffb020" font-size="9" font-family="monospace" opacity="0.2" filter="url(#label-glow)">Clean Architecture</text>
  <text x="401.6" y="224.7" text-anchor="middle" fill="#ffb020" font-size="9" font-family="monospace" opacity="0.85">Clean Architecture</text>

  <circle cx="203.8" cy="190.4" r="2.5" fill="#ffb020" opacity="0.85">
    <animate attributeName="opacity" values="0.85;1;0.85" dur="5s" begin="2.1s" repeatCount="indefinite"/>
  </circle>
  <line x1="203.8" y1="190.4" x2="194.0" y2="200.3" stroke="#ffb020" stroke-width="0.5" opacity="0.25" stroke-dasharray="2 2"/>
  <text x="192.0" y="203.3" text-anchor="end" fill="#ffb020" font-size="9" font-family="monospace" opacity="0.2" filter="url(#label-glow)">Kafka</text>
  <text x="192.0" y="203.3" text-anchor="end" fill="#ffb020" font-size="9" font-family="monospace" opacity="0.85">Kafka</text>

  <!-- Project stars -->
  <circle cx="464.1" cy="86.5" r="4" fill="#00d4ff" filter="url(#star-glow-0)">
    <animate attributeName="opacity" values="0.6;1;0.6" dur="4s" begin="0.0s" repeatCount="indefinite"/>
  </circle>
  <circle cx="171.4" cy="180.6" r="4" fill="#ffb020" filter="url(#star-glow-2)">
    <animate attributeName="opacity" values="0.6;1;0.6" dur="4s" begin="1.6s" repeatCount="indefinite"/>
  </circle>
  <circle cx="659.1" cy="167.2" r="3.5" fill="#a78bfa" filter="url(#star-glow-1)">
    <animate attributeName="opacity" values="0.6;1;0.6" dur="4s" begin="0.8s" repeatCount="indefinite"/>
  </circle>

  <!-- Orbital rings -->
  <ellipse cx="425" cy="155" rx="55" ry="18" fill="none" stroke="#00d4ff" stroke-width="0.6" opacity="0.15" stroke-dasharray="4 6">
    <animateTransform attributeName="transform" type="rotate" from="0 425 155" to="360 425 155" dur="20s" repeatCount="indefinite"/>
  </ellipse>
  <ellipse cx="425" cy="155" rx="75" ry="24" fill="none" stroke="#a78bfa" stroke-width="0.5" opacity="0.10" stroke-dasharray="3 8">
    <animateTransform attributeName="transform" type="rotate" from="360 425 155" to="0 425 155" dur="30s" repeatCount="indefinite"/>
  </ellipse>

  <!-- Galaxy core -->
  <circle cx="425" cy="155" r="40" fill="url(#core-haze-gradient)" opacity="0.4"/>
  <circle cx="425" cy="155" r="24" fill="url(#core-inner-gradient)" opacity="0.6"/>
  <ellipse cx="425" cy="155" rx="20" ry="18" fill="none" stroke="#00d4ff" stroke-width="1.2" opacity="0.55" stroke-dasharray="5 3" class="core-ring"/>
  <circle cx="425" cy="155" r="14" fill="none" stroke="#a78bfa" stroke-width="0.8" opacity="0.4" class="core-ring-inner"/>
  <circle cx="425" cy="155" r="11" fill="#051633" stroke="#0a224a" stroke-width="0.5"/>
  <circle cx="425" cy="155" r="3" fill="#00d4ff" filter="url(#core-bright-glow)" opacity="0.9"/>
  <text x="425" y="160" text-anchor="middle" fill="#00d4ff" font-size="14" font-weight="bold" font-family="monospace">S</text>

  <!-- Profile text -->
  <text x="425" y="23" text-anchor="middle" fill="#f1f5f9" font-size="19" font-weight="bold" font-family="sans-serif">Samuel Junqueira</text>
  <text x="425" y="39" text-anchor="middle" fill="#64748b" font-size="10" font-family="sans-serif">Back-end | Java Developer</text>

  <!-- Legend -->
  <circle cx="16"  cy="55" r="3" fill="#00d4ff"/>
  <text x="24"  y="59" fill="#00d4ff" font-size="8" font-family="monospace" opacity="0.8">Backend</text>
  <circle cx="73"  cy="55" r="3" fill="#a78bfa"/>
  <text x="81"  y="59" fill="#a78bfa" font-size="8" font-family="monospace" opacity="0.8">Frontend</text>
  <circle cx="135" cy="55" r="3" fill="#ffb020"/>
  <text x="143" y="59" fill="#ffb020" font-size="8" font-family="monospace" opacity="0.8">Cloud &amp; Arch</text>

  <!-- Quote -->
  <text x="425" y="271" text-anchor="middle" fill="#475569" font-size="9" font-style="italic" font-family="monospace">The best code is the code that empowers others.</text>
</svg>
